<svg width="27" height="23" viewBox="0 0 27 23" fill="none" xmlns="http://www.w3.org/2000/svg">
<path d="M10.6274 15.8063C10.6274 17.0278 10.0471 19.0265 8.6735 19.0265C7.29989 19.0265 6.71957 17.0278 6.71957 15.8063C6.71957 14.5849 7.29989 12.5861 8.6735 12.5861C10.0471 12.5861 10.6274 14.5849 10.6274 15.8063ZM26.2749 12.855C26.2749 14.7193 26.1045 16.6946 25.3432 18.407C23.3254 22.8837 17.7777 22.7785 13.8059 22.7785C9.77026 22.7785 3.89248 22.9363 1.79479 18.407C1.01748 16.7122 0.71933 14.7193 0.71933 12.855C0.71933 10.4062 1.45938 8.09189 2.92882 6.21588C2.65197 5.29249 2.51887 4.32234 2.51887 3.36388C2.51887 2.10736 2.77975 1.47618 3.29618 0.336548C5.70799 0.336548 7.25197 0.862532 9.08878 2.44048C10.6328 2.03723 12.2193 1.85606 13.8112 1.85606C15.2487 1.85606 16.6969 2.02554 18.0918 2.39373C19.902 0.83331 21.446 0.336548 23.8312 0.336548C24.3529 1.47618 24.6085 2.10736 24.6085 3.36388C24.6085 4.32234 24.47 5.27495 24.1985 6.18081C25.6626 8.07436 26.2749 10.4062 26.2749 12.855ZM22.8515 15.8063C22.8515 13.2407 21.43 10.979 18.9383 10.979C17.9321 10.979 16.9684 11.1777 15.9568 11.3296C15.1636 11.464 14.3703 11.5166 13.5557 11.5166C12.7464 11.5166 11.9531 11.464 11.1545 11.3296C10.1589 11.1777 9.18461 10.979 8.17304 10.979C5.68137 10.979 4.25984 13.2407 4.25984 15.8063C4.25984 20.9376 8.5404 21.7266 12.2673 21.7266H14.8335C18.5763 21.7266 22.8515 20.9434 22.8515 15.8063ZM18.4538 12.5861C17.0802 12.5861 16.4999 14.5849 16.4999 15.8063C16.4999 17.0278 17.0802 19.0265 18.4538 19.0265C19.8274 19.0265 20.4078 17.0278 20.4078 15.8063C20.4078 14.5849 19.8274 12.5861 18.4538 12.5861Z" fill="black"/>
</svg>
