<svg width="25" height="23" viewBox="0 0 25 23" fill="none" xmlns="http://www.w3.org/2000/svg">
<path d="M25 2.9276C24.0994 3.36546 23.1319 3.66131 22.1148 3.79503C23.1642 3.10605 23.9494 2.02168 24.3237 0.744248C23.3377 1.38682 22.2586 1.83912 21.1332 2.08148C20.3765 1.19496 19.3741 0.60736 18.2818 0.409909C17.1894 0.212458 16.0682 0.416202 15.0922 0.989509C14.1163 1.56282 13.3401 2.47361 12.8842 3.58049C12.4284 4.68736 12.3184 5.92839 12.5713 7.11089C10.5734 7.00083 8.61889 6.43109 6.83466 5.43865C5.05043 4.4462 3.47634 3.05324 2.21455 1.35014C1.78311 2.16668 1.53503 3.1134 1.53503 4.12165C1.53455 5.0293 1.73827 5.92305 2.12813 6.72361C2.51798 7.52416 3.08192 8.20676 3.76989 8.71084C2.97202 8.68298 2.19176 8.44645 1.49404 8.02092V8.09192C1.49396 9.36495 1.89532 10.5988 2.63001 11.5841C3.3647 12.5694 4.38747 13.2455 5.52478 13.4977C4.78462 13.7174 4.00863 13.7498 3.2554 13.5923C3.57628 14.6877 4.20133 15.6455 5.04304 16.3318C5.88475 17.018 6.90098 17.3983 7.94947 17.4194C6.1696 18.9524 3.97147 19.7839 1.70868 19.7803C1.30785 19.7804 0.907364 19.7547 0.509277 19.7034C2.80613 21.3236 5.47984 22.1835 8.2105 22.1802C17.4541 22.1802 22.5074 13.7805 22.5074 6.49553C22.5074 6.25885 22.502 6.01981 22.4923 5.78313C23.4752 5.00324 24.3236 4.0375 24.9979 2.93115L25 2.9276Z" fill="black"/>
</svg>
